<svg version="1" xmlns="http://www.w3.org/2000/svg" width="2016" height="2016" viewBox="0 0 1512.000000 1512.000000"><path d="M358.9 334.5c-.1.3-.2.9-.3 1.4 0 .5-.4 1.3-.8 1.7-.5.4-.8 190.3-.8 422.1V1181h122.3c67.2 0 122.8-.4 123.4-.8 1-.7 1.3-48.2 1.5-230.3l.3-229.4 25.7 38c14.2 20.9 84.7 124.4 156.7 230l130.9 192 121.3.3c66.8.1 122.9 0 124.7-.3l3.2-.6V334h-123c-108.7 0-123 .2-123 1.5 0 .8-.7 1.5-1.5 1.5-1.3 0-1.5 26.5-1.7 230.1l-.3 230L760 565.6 602.5 334.1l-121.7-.1c-67 0-121.9.2-121.9.5z"/></svg>