<svg version="1" xmlns="http://www.w3.org/2000/svg" width="800" height="800" viewBox="0 0 600.000000 600.000000"><path d="M343 110.7c-2.5.9-40.3 13.7-84 28.6-43.7 14.8-80.6 27.4-81.9 27.9-2.4.9-2.3 1.1 5.2 8.6 6.9 6.9 7.8 8.2 8.7 13.1.5 2.9 1 5.7 1 6.1 0 .4-3.4 1.7-7.7 2.9l-7.6 2.2-11.6-11.3c-6.4-6.2-22.1-21.6-34.9-34.2-12.7-12.6-23.4-22.7-23.6-22.5-.5.6-75.6 166.8-75.6 167.4 0 .2.7.2 1.6-.2 1.4-.5 1.5-.3.5 1.5-1.7 3.2-1.4 3.3 3.7 1.1 7-3.1 9.2-3.9 9.2-3.4 0 .2-4.7 3.8-10.5 8-5.7 4.2-12.3 9.7-14.6 12.3-4 4.5-7.8 11.3-7.9 14 0 .7 1.9 3.3 4.1 5.7 4.7 5 7.9 5.7 15.4 3 2.2-.8 4.3-1.5 4.7-1.5.5 0-4.1 9.6-10.1 21.2C14.9 385 9.4 397.4 4.3 413c-3 9.1-3.5 11.9-3.6 21.3-.1 5.9.2 10.7.7 10.7.5 0 .6 1.6.3 3.5l-.6 3.5h4.2c2.3 0 20.4-.7 40.2-1.5 19.8-.7 51.3-1.9 70-2.6 18.7-.6 34.3-1.4 34.6-1.8.4-.3 5.3-9.1 10.9-19.4 5.6-10.3 10.4-18.6 10.7-18.4.3.3 16.3 81 16.3 82.2 0 .1 3.7-.8 8.3-2.1 11.8-3.2 85-20.8 105.7-25.4 24-5.3 41.5-8.2 45.4-7.4 2.4.4 10.3-1.2 27.2-5.4 38.4-9.7 72.1-16.2 116.2-22.3 8.9-1.3 16.2-2.7 16.2-3.2s-2-4.5-4.5-8.9c-4.9-8.8-5.2-9.8-3-9.8 1.8 0 1.9-1.4.4-4.2-.9-1.8-.8-1.9 1-1.3 1.9.6 1.7 0-1.4-5.3-1.9-3.3-3.5-6.2-3.5-6.5 0-.2 2.5-.2 5.5.1 4.2.3 5.5.1 5.5-.9 0-1.7 90.3-36.5 91.9-35.5 2.5 1.6.7-1.8-7-13.6-4.5-6.7-8.2-12.4-8.3-12.5 0-.1-26.2-4.2-58.1-9.2-31.9-5-59.1-9.4-60.3-9.8-1.8-.6-5.5-6.5-15.1-24.3l-12.7-23.5-7.7-2.3-7.7-2.4V251c0-2.1.7-5.3 1.5-7.3 3-7.2 3.7-16.5 2-24.7-1.6-7.3-1.9-7.7-9.8-15.7l-8.1-8.2.3-5.1c.1-2.7-.3-7.6-1-10.7-.7-3.2-1.3-6.1-1.3-6.5-.1-.3-3.7-4.6-8.2-9.5-4.4-4.8-14.9-16.7-23.4-26.3-16-18.3-25.1-28.1-26-27.9-.3 0-2.5.8-5 1.6zm-201.5 58l32.9 32.1-9 2.7c-4.9 1.5-9.3 3-9.7 3.5-.4.4 3.1 4 7.8 8 4.7 4 8.7 8.2 9 9.4 1.5 6.2 2.2 11.7 1.5 12.1-1.8 1.1-24.3 10.5-25.1 10.5-.6 0 .1-1.5 1.5-3.3 3.4-4.4 3.3-5.1-.5-3.2-1.7.9-3.3 1.5-3.5 1.3-.2-.3 1-2.3 2.7-4.6 1.7-2.3 2.6-4.2 1.9-4.2-.6 0-5 1.6-9.7 3.6-6.1 2.5-9.6 3.4-11.7 3-2.8-.5-6 1.6-31.2 20.3l-28.2 20.8-17.1 7.3c-9.4 4-17.3 7.1-17.4 6.9-.2-.2 14.4-33 32.4-72.9 18.1-39.9 34.2-75.6 35.9-79.3 1.7-3.8 3.4-6.7 3.9-6.5.4.2 15.6 14.8 33.6 32.5zm58.1 26c-.3.6 2.3 4.1 5.7 7.6 3.4 3.5 4.8 4.7 3.2 2.8-7.1-8.4-7.6-9.3-1.8-3.2 3.4 3.6 5.9 6.9 5.7 7.3-.2.3.8 1.6 2.2 2.7 2.7 2.1 16.7 19 18.5 22.2.5 1 1.2 6.9 1.5 13.1l.5 11.3-3.3-3.6c-1.8-2-11.1-12.2-20.7-22.7l-17.3-19.1-.2-13-.1-13 3.3 3.2c1.8 1.7 3 3.7 2.8 4.4zm-7.6 6.6c0 2.9-.5 3.6-4.4 5.4l-4.4 2.2.6 10.7.5 10.8-9.4-8.6c-5.2-4.7-10.7-9.7-12.4-11.1l-2.9-2.5 10.4-3.1c5.8-1.8 13-4.1 16-5.1s5.6-1.9 5.8-1.9c.1-.1.2 1.4.2 3.2zm221.8 3.9l6.1 5.6-7 2.2c-3.9 1.2-7.2 2-7.4 1.8-1.5-1.5 0-16.2 1.5-15.6.4.2 3.5 2.8 6.8 6zm9.7 21.8c0 4.7-.6 10.4-1.3 12.7l-1.2 4.2-10 3.2c-5.5 1.8-10.1 3.1-10.4 2.8-.3-.2-.1-3.1.4-6.4.6-4.8 0-16.8-1.3-22.7-.1-.5 4.5-2.4 10.3-4.3l10.5-3.3 1.5 2.6c1 1.8 1.5 5.6 1.5 11.2zm-23.7 5.2c.3 4.8.1 10.8-.2 13.3-.8 4.9-1.5 5.2-9.7 3.9l-3.7-.6-.4-10.7c-.3-5.8-.8-11.3-1.2-12.2-.5-1.2.8-1.9 6.1-3.5 8.4-2.4 8.5-2.3 9.1 9.8zm-16.3-5.5c.4 1 1 6.3 1.2 11.9l.5 10-10.6 1.3c-18.2 2.1-38.5 10.3-59.3 23.9-7.2 4.8-9.4 5.8-10.2 4.8-2-2.4-14.6-7.5-21.1-8.5-8.1-1.3-23.4-1.4-36.4-.1-5.5.5-10.1.9-10.2.7-.1-.1 18.9-6.2 42.4-13.5s56-17.5 72.2-22.7c16.2-5.1 29.8-9.4 30.1-9.4.4-.1 1 .7 1.4 1.6zM188 238.3c0 .6-1.1 0-2.5-1.3s-2.6-2.2-2.8-1.9c-.2.2 3.3 3.8 7.7 7.9 5.1 4.6 6.2 5.5 3.1 2.2-2.7-2.9-4.5-5.2-4.1-5.2 1 0 9.3 9.3 8.6 9.6-.8.4 4.1 5.3 5 5.1 1-.3 17 16.8 17 18.2 0 2.5-2.6.5-15.3-11.9-7.4-7.2-13.6-13-13.9-13-.3 0 5.3 5.7 12.4 12.7 7 7 12.8 13 12.8 13.4 0 .4-.8.9-1.7 1.2-1.2.3-6.7-4.4-17.3-14.7l-15.5-15.1 14.8 15.1c12 12.2 14.6 15.2 13.1 15.8-1.2.5-2.9-.4-5.3-2.6-3.5-3.2-3.5-3.2-.8-.2 3.1 3.5 3.3 4 1.1 4.8-1.1.4-5.5-3.2-14.6-11.8l-13-12.3-.1-13.6-.2-13.5 5.8 5c3.1 2.8 5.7 5.5 5.7 6.1zm-13 5.7c0 .6-2.5 2.1-5.5 3.5-7.2 3.1-7.4 5.8-1.1 11l4.3 3.7.7 10.1c.7 10.6 0 19.7-1.5 19.7-.5 0-.9-.7-.9-1.5s-.9-2.4-2.1-3.6c-1.6-1.6-2.3-1.8-3.5-.8-.8.6-1.4 2.2-1.4 3.5 0 3.1-1.6 3.1-2.4 0-1.2-4.9-6.1-4-6.8 1.2l-.4 2.7-1.1-2.5c-.6-1.4-1.9-3.2-2.9-4-1.7-1.4-1.8-1.4-.5.2 1.2 1.6 1.1 1.8-.2 1.8-.8 0-1.8-.6-2-1.3-.3-.6-.8.2-1.2 1.9-.4 1.7-1.3 3.1-2 3.1s-1-.8-.8-1.7c.2-.9-.3-2.2-1.1-2.9-2.2-1.9-4.8-.6-4.4 2.1.2 1.8-.2 2.3-1.9 2.4-1.5.1-2-.3-1.6-1.4.4-.8-.2-2.1-1.2-2.8-2.3-1.7-4.5-.2-4.5 3.2 0 3.2-1.2 3-3.2-.7-2.2-3.8-5.2-3.6-5.6.4-.4 3.4-1.5 3.5-3 .2-.6-1.4-1.7-2.5-2.4-2.4-1 0-1 .2 0 .6.6.2 1.2.9 1.2 1.4 0 .4-.6.6-1.4.3-1-.4-1.6.3-1.9 1.8-.3 1.4-.4 1-.3-.9.1-1.7-.2-2.9-.6-2.7-.4.3-.8 1.6-.8 3 0 3.2-1.6 3.1-2.4-.1-.4-1.5-1.1-2.3-1.8-1.9-.7.5-.8.2-.2-.9.5-.8 8.1-7.6 16.9-15.2 8.8-7.5 16.8-14.6 17.7-15.7 1.3-1.4 27.1-13.5 33.6-15.7.1-.1.2.4.2.9zm229.5 9.5c8.3 1.4 24 5.2 29.3 7.2 3.2 1.2 26.7 44.7 24.3 45.1-.9.1-18.5-2.5-39.1-5.8-20.6-3.4-39.1-6.3-41-6.5-7.8-1-24.6-3.7-26-4.1-1-.4-.3-1.2 2.3-2.5 2-1.1 3.7-2.2 3.7-2.4 0-.3-2.3.6-5.1 2.1-2.9 1.4-5.9 2.4-6.9 2.1-1.3-.3-1.6 0-1.3 1.2.3 1.1-.5 2.1-2.3 2.9-1.4.7-2.4 1.5-2.1 1.8.3.3 1.7-.2 3-1.1 2.9-1.8 2.4-2.3 8 7.5l2.6 4.4-4.2 2.8c-2.3 1.5-3.7 2.8-3.2 2.8.6 0 2.1-.9 3.5-2 3.6-2.8 4.7-2.5 7.2 1.9 2.3 4.1 4.1 5.1 9.1 5.1 1.5 0 2.7.5 2.7 1 0 .6 1.2.8 2.8.5 2.4-.6 2.5-.5.8.6-1 .6-3 1.2-4.5 1.3-2.5.2-12.7 5-16.4 7.8-1.7 1.2-1.3 1.8 4.8 7.2 5.7 5 6.4 6 5.3 7.4-1.1 1.4-1 1.5.6.9 1.2-.5 2.5-.2 3.6.8 1.5 1.3 2.8.9 14.1-4.9 13.9-7.2 24.1-11 34.6-12.7 6.3-1 8.8-.9 23.9 1.6 15.9 2.5 32.4 7.3 37.6 10.7 1 .7 7.5 11.6 14.3 24.3l12.4 23-29.2.6c-16.1.3-32.8.9-37.2 1.3-16.4 1.5-44.4 10.5-55.6 17.9-3 2-9.1 7-13.5 11l-8 7.5-25.4-70.2c-13.9-38.5-25.5-70.6-25.7-71.1-.2-.6 3.2-3.3 7.5-6.1 16.4-11 35.7-19.8 49.7-22.9 8.2-1.8 28-1.8 39 0zM290.1 274c3.6 1.1 8.5 3.3 10.9 4.9l4.5 3 22.9 63.3c12.6 34.8 24.2 66.7 25.7 70.8l2.7 7.6-5.6-.8c-3.2-.4-15.1-1-26.7-1.4-30-.9-43.8 1.1-71.2 10.7-12.4 4.4-39.6 15.5-46.5 19-2.2 1.1-4.2 1.9-4.4 1.7-.2-.2-4.4-19.5-9.4-42.8-8.2-38.2-9.1-43.2-8.6-49.6.8-10.3 5.2-30 9.7-44 3.2-10 3.7-12.7 2.9-14.9-.5-1.4-1-4.7-1-7.2v-4.5l-3.5.4c-2.8.3-3.5 0-3.5-1.3 0-3.2 23.3-11.8 38.8-14.4 23.8-3.8 50.8-4.1 62.3-.5zM187 286.9c0 .4-.9.7-2 .7-2 0-2.5-.7-1.4-1.9.7-.7 3.4.2 3.4 1.2zm-17.4 2.3c.3 1.1.3 2.2 0 2.5-.3.4-.6-.2-.7-1.3 0-1.8-.1-1.8-1 .1-.9 1.9-.9 1.8-.5-.3.2-1.2 0-2.2-.5-2.2s-1 1.2-1 2.7c-.2 2.5-.2 2.6-.6.5-1-5 2.8-6.7 4.3-2zm7.9-2.2c.3.6-.1.7-.9.4-1.9-.7-2.2 3.5-.5 6.9 1 2.1 1 2.1-.5.3-1.6-2-2.2-6.7-.9-7.9.9-1 2.1-.9 2.8.3zm-17.5 1.5c.6.8 1 2 .7 2.7-.3.8-.6.5-.7-.7l-.1-2-1 2c-.9 1.9-.9 1.8-.5-.3.2-1.2 0-2.2-.5-2.2s-1 1.2-1 2.7c-.1 1.8-.3 2.2-.6 1-1-3.9 1.4-6 3.7-3.2zm-26.1 1.4c0 .3-.4 1.5-.8 2.6-.8 1.9-.8 1.9-2-.3-.7-1.2-.9-2.7-.6-3.2.6-1 3.6-.2 3.4.9zm8.8-.4c.3 1.2-1.4 4.2-2 3.5-.3-.3-.8-1.6-1.2-2.8-.6-1.9-.4-2.3 1.1-2 .9.1 1.9.7 2.1 1.3zm-17.7 1.6c.7 1.1.9 2.3.7 2.6-.3.2-.8-.5-1.2-1.6-.3-1.2-1.1-2.1-1.7-2.1-.6 0-.5.6.3 1.6 1 1.3 1 1.7 0 2.3-1 .7-1.1 1.3-.1 3.2 1 1.9 1 2.2 0 1.2-1.9-1.8-2.3-9.3-.5-9.3.8 0 1.9.9 2.5 2.1zm22.7 1.1c-.3.7-.5.2-.5-1.2s.2-1.9.5-1.3c.2.7.2 1.9 0 2.5zm4-1c-.3.8-.6.5-.6-.6-.1-1.1.2-1.7.5-1.3.3.3.4 1.2.1 1.9zm-2 1c-.3.8-.6.5-.6-.6-.1-1.1.2-1.7.5-1.3.3.3.4 1.2.1 1.9zm38.8 1c1.9-.2 3.5.1 3.5.6 0 1.3-43.9 131.4-44.5 132-.6.6-143.9 3.1-144.5 2.5-.8-.8 3.7-16.5 7.5-26.3 5.3-13.5 12.1-27.8 23.1-48.5l9.6-18L64.6 319c11.7-9.1 22.3-16.7 23.6-17 1.3-.3 2.3-1.2 2.3-2 0-1.4 5.2-3.3 5.9-2.1.3.4 2.1.5 4 .3 3.3-.4 3.5-.6 3.1-3.6-.5-2.9-.5-3 .4-.4.5 1.4 1.2 3.2 1.6 3.9.6.8.4 1-.6.4-1.2-.8-1.2-.6 0 .8 1.8 2.3 3.4 2.2 2.6-.2-.5-1.7 0-1.9 6.2-1.9 4.6 0 7.3.5 8.5 1.5 2.1 1.9 4.4.8 2.7-1.3-.9-1.2-.6-1.4 2-1.4 1.8 0 3.1-.5 3.1-1.3s.3-.7 1 .3c.6.9 2.1 1.4 4.3 1.2 2.1-.2 3.8.3 4.6 1.2 1.9 2.2 3.4 2 2.6-.4-.5-1.6-.2-2 1.8-2 1.4 0 3 .7 3.7 1.5.7.8 1.9 1.5 2.7 1.5.9 0 1.3-.6.9-1.5-.6-1.6-1.1-1.6 13.6-2.1 6.6-.2 8.9 0 9.8 1.1 1.3 1.6 4 2 4 .7 0-.4-.5-1.3-1.2-2-.9-.9-.5-1.2 2-1.2 1.9 0 3.2-.5 3.2-1.3s.3-.7 1 .3c.6.9 2.1 1.4 4.5 1.2zm233 9.4c143.2 22.6 160.8 25.4 161 25.6.1.2 3.4 5.1 7.4 11 5.9 8.9 6.8 10.8 5.2 10.8-2.1 0-5.1-2.5-5.1-4.1 0-.6.6-.7 1.3-.3.8.5.9.4.2-.3-1.2-1.3-23.3-4.8-24.2-3.9-.3.3.8.6 2.5.6 2.7 0 5.2 2.1 5.2 4.3 0 .5-11-1.1-13-2-1.5-.6-3-.7-10.2-1.1-3.5-.2-6.8-2.3-6.8-4.3 0-.5 2.1-.7 4.8-.4 3 .3 2-.1-2.8-1-4.1-.8-8.4-1.3-9.5-1.1-1.1.2-.6.4 1.2.5 3.1.1 6.3 2.3 6.3 4.3 0 .5-1.2.7-2.7.4-1.6-.3-4.6-.8-6.8-1.2-2.2-.4-4.6-1.4-5.3-2.3-1.1-1.5-1.2-1.5-.7 0 .5 1.4-.1 1.5-5.2.7-3.2-.5-6.5-1.2-7.3-1.5-.8-.2-4-.7-7-.9-7-.5-8.8-1.1-10-3.5-.9-1.7-.7-1.9 1.7-2 2-.1 1.6-.4-1.7-1-2.5-.5-5.2-.7-6-.5-.8.2-.3.4 1.1.5 1.7.1 3 .9 3.8 2.7 1.1 2.5 1 2.6-1.1 2.1-1.3-.3-4.4-.9-6.9-1.2-4.5-.7-7.7-3.4-6.4-5.5.4-.6-.3-1-1.5-1h-2.1l2.1 2.2c1.1 1.2 2 2.5 2 2.8 0 .4-3 .2-6.6-.4-5.1-.8-7-1.6-8.2-3.4-1.4-2.1-1.3-2.2.9-2.3 2.9-.2-4.6-1.8-7.6-1.7-1.2 0-.9.3.9.7 1.6.3 3.6 1.7 4.4 2.9l1.6 2.4-6-.7c-7.3-.9-9.2-1.9-10-5-.4-1.8-1.3-2.5-2.8-2.4-1.4.1-1.6.3-.5.6 1.4.3 4.6 5.3 3.5 5.3-.2 0-3.9-.6-8.2-1.4-4.4-.8-10.5-1.8-13.8-2.2-5.2-.6-6-1-7.8-4-1.3-2.3-2.7-3.4-4.1-3.3h-2.2l2.2.9c2.7 1.1 5.1 5 3 5-5 0-12.4-2.3-13.9-4.3-1.6-2.1-1.6-2.2 0-2.9 1.2-.5.9-.7-1.1-.7l-2.8-.1 2 2.7c1.2 1.4 2 2.7 1.9 2.8-.2.2-3.2-.2-6.8-.7-4.7-.7-7-1.6-8.3-3.1-1.3-1.6-1.6-1.7-1.1-.5.8 2.2.8 2.2-14.4-.1-6.7-1.1-13-2.5-13.9-3.3-1.4-1.1-1.6-1.1-.9.1.7 1 .3 1.2-1.5.6-1.3-.4-2.4-.8-2.5-.9-.1-.1-11.1-19.1-12.2-21-.3-.5 1-.6 2.9-.3 1.9.4 33.6 5.4 70.4 11.3zm-314.3-9.7c.8-1.2.9-1.2.6 0-.6 2.2-2.8 2.5-2.7.4 0-1.2.2-1.4.6-.4.5 1.1.7 1.1 1.5 0zm7.5 1.3c-.3.8-.6.5-.6-.6-.1-1.1.2-1.7.5-1.3.3.3.4 1.2.1 1.9zm2 0c-.3.8-.6.5-.6-.6-.1-1.1.2-1.7.5-1.3.3.3.4 1.2.1 1.9zm33.1 2.3c-.3.3-.9-.2-1.2-1.2-.6-1.4-.5-1.5.5-.6.7.7 1 1.5.7 1.8zm35.7 37.3c-5.6 16.3-15.7 46-22.5 65.9-6.8 20-12.8 36.3-13.2 36.3-2.2 0-.1-8.7 7.4-30.7 4.6-13.3 8.4-24 8.6-23.8.2.2-3.1 10.8-7.3 23.5-4.2 12.8-7.5 23.6-7.3 24.1.2.5 5-13.8 10.8-31.8 5.8-17.9 11.1-33.3 11.9-34.1 1.2-1.1 1.2-1.8.3-3.3-1.7-2.7-1.5-3.7.3-1.3 1.1 1.5 1.4 1.6 1.5.3 0-.8-.4-1.9-1-2.5-.6-.6 2.6-11.3 8.8-29.3 8.7-25.7 9.8-28.1 10.7-25.7 1 2.3-.2 6.6-9 32.4zm325.8 4.9c16.9 2.6 30.7 5 30.7 5.3 0 .3-7.1 3.5-15.8 7.2-8.6 3.6-19.4 8.2-23.9 10.1l-8.1 3.5-7.9-14.6c-9.4-17.5-8.8-16.2-7.1-16.2.7 0 15.1 2.1 32.1 4.7zm71.3 5.4c4 .7 6.5 1.6 6.9 2.6.3.9.4 1.7.2 1.9-.8.8-13.2-1.8-13.9-2.9-1.9-3-1.6-3.1 6.8-1.6zm-390.7 72.4c4.6 21.4 8.5 39.2 8.7 39.4.2.2 6.5-2.4 14.1-5.7 13.2-5.8 34.1-14.2 35.2-14.2.3 0-7 4-16.4 8.9-9.3 4.9-20.6 10.9-25 13.5-7.1 4.1-8.1 4.4-8.7 2.8-1.6-3.6-18.8-83.4-18.2-84.4.3-.5.9-.6 1.3-.1.4.4 4.5 18.3 9 39.8zm-1.4 9c4.7 21.4 8.7 39 8.8 39.1.1.1 4.9-2.5 10.7-5.8 5.7-3.3 13.7-7.3 17.7-9 4.2-1.8 7-3.5 6.6-4.1-.3-.6-.1-.7.5-.3.7.4 6.4-1.1 12.8-3.3 12.4-4.4 26.4-8.1 38.4-10.3 9-1.5 48.2-1.6 58-.1 3.6.6 6.7.9 6.9.7 2.3-2.2-18.2-3.7-41.7-3.1-24.8.6-32.9 2-54.6 9.1-7.2 2.4-14 4.7-15.1 5.1-4 1.3 9.3-5.4 18.8-9.5 14.3-6.1 26.5-8.9 43.6-9.9 14.4-.9 40.5 0 52.1 1.8l5.5.9 6.3-5.7c17.2-15.4 25.6-20 48.5-26.7 14.8-4.2 26.7-5.4 56.2-5.4h23l2.2 3.8 2.1 3.8-9.1-.9c-12.7-1.2-44.3-.2-55.2 1.8-17.1 3-42.6 13.3-63.4 25.4-11.9 7-7.4 5.7 6.5-1.8 15.4-8.4 33.6-16.3 44.8-19.5 13.1-3.8 25.2-5.1 49.4-5.1h22.4l2.4 3c1.3 1.6 2.4 3.3 2.4 3.8 0 1.7-4.8 2.4-11 1.4-11.2-1.7-40.4-1.3-49.5.7-17.4 3.8-65 21.4-63.1 23.3.3.3 4.7-1.3 9.8-3.5 39.5-17.1 62.9-22.4 91-20.2 16.9 1.3 19.1 1.7 20.6 4.1 1.2 1.9 1.1 2-2 1.4-16.3-2.8-36.1-3.2-49.6-1-9.3 1.5-28.8 7.2-27.9 8.2.3.2 4.8-.9 9.9-2.6 13.9-4.4 29.7-6.5 44.3-5.8 12.9.7 27.5 2.6 27.5 3.6 0 .3-10.2.6-22.7.6-18 0-24.9.4-32.8 1.9-22.3 4.1-44.2 11.3-67.4 22.3-11.4 5.3-11.4 5.3-13.3 3.3-2.5-2.7-3.5-2.5-6.6 1l-2.6 3H341c-57.6.1-108.5 10.9-137.3 29.3-3.2 2.1-6.1 3.7-6.5 3.7-1.2 0-20.5-85.9-19.6-86.9 1.1-1.2 2.3 3.8 10.2 40.6 4.6 21.9 8.6 39.9 8.7 40.1.2.2 6.7-3 14.6-7.2 42.2-21.9 65.8-27.4 118.7-27.7 12.2 0 21.2-.4 21.2-1 0-2.2-50.3-.3-70.5 2.7-21.9 3.2-39.9 9.7-68.2 24.4-8.4 4.4-15.3 7.7-15.3 7.5 0-.2-4.1-19.5-9-43-5-23.4-8.8-43.1-8.4-43.7 1.2-1.9 1.9.6 10.9 41.7zm-43.3 8.7c.2 2.9.3 5.5.1 5.7-.3.5-88.7 1.9-122 2L3 442v-11l19.3-.1c10.5-.1 33.4-.5 50.7-.8 17.3-.4 41-.8 52.7-.9l21.1-.2.4 5.2z"/><path d="M109.6 193.4c-9.2 16.6-28 53.6-27.4 54.1.2.1 9.8-4.3 21.3-9.9 11.6-5.5 28.4-13.6 37.3-17.9l16.3-7.8-12.8-12.2c-7-6.8-15.5-14.8-18.9-18l-6.1-5.7-9.7 17.4zm35.6 16.3l3.6 3.8-27.1 12.9c-15 7.2-28.9 13.8-30.9 14.8l-3.7 1.8 5.3-11.4c4.6-9.8 17.7-34.1 23.8-44.4l2-3.2 11.6 10.9c6.5 6 13.3 12.7 15.4 14.8zM198.6 206.1c1.3 2.4 32.8 37.8 33.2 37.4.2-.2-6.9-8.6-15.8-18.7-18.5-20.8-18.6-20.9-17.4-18.7zM211.8 214.5c3.9 4.4 9.8 10.9 13.2 14.5l6.2 6.5-5.1-6c-2.8-3.3-8.7-9.8-13.2-14.5l-8.1-8.5 7 8zM214 229.2c0 1 13.9 16.2 15.3 16.7.7.2-1.3-2.2-4.4-5.5-3.1-3.2-6.8-7.3-8.2-8.9-1.5-1.7-2.7-2.7-2.7-2.3zM391.3 273.7c2.6.2 6.8.2 9.5 0 2.6-.2.4-.3-4.8-.3s-7.4.1-4.7.3zM382.8 274.7c.6.2 1.8.2 2.5 0 .6-.3.1-.5-1.3-.5-1.4 0-1.9.2-1.2.5zM408.3 274.7c.9.2 2.3.2 3 0 .6-.3-.1-.5-1.8-.5-1.6 0-2.2.2-1.2.5zM376.5 276c-1.3.5-1.4.9-.5.9.8 0 2.4-.4 3.5-.9 1.3-.5 1.4-.9.5-.9-.8 0-2.4.4-3.5.9zM415.3 275.7c.9.2 2.5.2 3.5 0 .9-.3.1-.5-1.8-.5-1.9 0-2.7.2-1.7.5zM367.5 279.4c-6.6 3.2-5.3 3.3 1.6.2 3-1.4 5-2.5 4.4-2.5-.5-.1-3.2 1-6 2.3zM398.8 289.7c1.7.2 4.7.2 6.5 0 1.7-.2.3-.4-3.3-.4-3.6 0-5 .2-3.2.4zM390.8 290.7c.6.2 1.8.2 2.5 0 .6-.3.1-.5-1.3-.5-1.4 0-1.9.2-1.2.5zM411.3 290.7c.9.2 2.3.2 3 0 .6-.3-.1-.5-1.8-.5-1.6 0-2.2.2-1.2.5zM383.5 292c-2.5 1.1.1 1.1 3.5 0 2-.6 2.1-.8.5-.8-1.1 0-2.9.3-4 .8zM418.3 291.7c.9.2 2.5.2 3.5 0 .9-.3.1-.5-1.8-.5-1.9 0-2.7.2-1.7.5zM420.3 338.7c.9.2 2.3.2 3 0 .6-.3-.1-.5-1.8-.5-1.6 0-2.2.2-1.2.5zM411.8 339.7c.6.2 1.8.2 2.5 0 .6-.3.1-.5-1.3-.5-1.4 0-1.9.2-1.2.5zM428.3 339.7c.9.2 2.5.2 3.5 0 .9-.3.1-.5-1.8-.5-1.9 0-2.7.2-1.7.5zM406.8 340.7c.7.3 1.6.2 1.9-.1.4-.3-.2-.6-1.3-.5-1.1 0-1.4.3-.6.6zM435.3 340.7c.9.2 2.5.2 3.5 0 .9-.3.1-.5-1.8-.5-1.9 0-2.7.2-1.7.5zM402.8 341.7c.7.3 1.6.2 1.9-.1.4-.3-.2-.6-1.3-.5-1.1 0-1.4.3-.6.6zM442.8 341.7c.6.2 1.8.2 2.5 0 .6-.3.1-.5-1.3-.5-1.4 0-1.9.2-1.2.5zM394 344.5c-1.4.8-2 1.4-1.5 1.4.6 0 2.1-.6 3.5-1.4 1.4-.8 2.1-1.4 1.5-1.4-.5 0-2.1.6-3.5 1.4zM383.8 349.1c-3.2 1.6-5.8 3.2-5.8 3.4 0 .5 11.9-5.2 12.9-6.1 1.3-1.2-2.2.1-7.1 2.7zM374.4 354.6c-1.8 1.4-1.8 1.5.4.4 1.2-.6 2.2-1.3 2.2-1.5 0-.8-.5-.6-2.6 1.1zM368.5 358c-1.6 1.1-2.5 2-2 2 1 0 6.4-3.9 5.5-4-.3 0-1.8.9-3.5 2zM420.3 358.7c.9.2 2.3.2 3 0 .6-.3-.1-.5-1.8-.5-1.6 0-2.2.2-1.2.5zM435.3 358.7c.9.2 2.5.2 3.5 0 .9-.3.1-.5-1.8-.5-1.9 0-2.7.2-1.7.5zM414.8 359.7c.6.2 1.8.2 2.5 0 .6-.3.1-.5-1.3-.5-1.4 0-1.9.2-1.2.5zM445.5 360.1c2.2.4 5.1.8 6.5.7 1.6 0 1.1-.3-1.5-.9-2.2-.4-5.1-.8-6.5-.7-1.6 0-1.1.3 1.5.9zM406 362c-1.8 1.2-.2 1.2 2.5 0 1.3-.6 1.5-.9.5-.9-.8 0-2.2.4-3 .9zM401 364c-.8.5-1 1-.5 1 .6 0 1.7-.5 2.5-1s1.1-1 .5-1c-.5 0-1.7.5-2.5 1zM394.5 367c-.3.6.1.7.9.4 1.8-.7 2.1-1.4.7-1.4-.6 0-1.3.4-1.6 1zM384.3 372.3c-6.9 4.2-8.2 5.8-1.8 2.2 6.5-3.7 9.2-5.5 8-5.4-.6 0-3.3 1.5-6.2 3.2z"/><path d="M375 378c-.9.6-1 1-.3 1 .6 0 1.5-.5 1.8-1 .8-1.2.4-1.2-1.5 0zM244.3 301.7c1.5.2 3.9.2 5.5 0 1.5-.2.2-.4-2.8-.4s-4.3.2-2.7.4zM262.7 301.7c1.8.2 5 .2 7 0 2.1-.2.7-.4-3.2-.4-3.8 0-5.5.2-3.8.4zM237.3 302.7c.9.2 2.3.2 3 0 .6-.3-.1-.5-1.8-.5-1.6 0-2.2.2-1.2.5zM275.8 302.7c1.2.2 3 .2 4 0 .9-.3-.1-.5-2.3-.4-2.2 0-3 .2-1.7.4zM232.8 303.7c.7.3 1.6.2 1.9-.1.4-.3-.2-.6-1.3-.5-1.1 0-1.4.3-.6.6zM283.3 303.7c.9.2 2.3.2 3 0 .6-.3-.1-.5-1.8-.5-1.6 0-2.2.2-1.2.5zM217.7 309.4c-5.7 3.5-5.9 4.3-.2 1.1 5.8-3.2 6.2-3.5 4.9-3.5-.5 0-2.6 1.1-4.7 2.4z"/><path d="M207.8 315.1c-2.1 1.1-3.8 2.2-3.8 2.4 0 .3 1.8-.4 4-1.5s4-2.3 4-2.5c0-.7 0-.7-4.2 1.6zM256.8 314.7c2.3.2 6.1.2 8.5 0 2.3-.2.4-.4-4.3-.4s-6.6.2-4.2.4zM246.3 315.7c.9.2 2.3.2 3 0 .6-.3-.1-.5-1.8-.5-1.6 0-2.2.2-1.2.5zM273.3 315.7c1.5.2 3.7.2 5 0 1.2-.2 0-.4-2.8-.4-2.7 0-3.8.2-2.2.4zM239.8 316.7c.6.2 1.8.2 2.5 0 .6-.3.1-.5-1.3-.5-1.4 0-1.9.2-1.2.5zM283.3 316.7c.9.2 2.5.2 3.5 0 .9-.3.1-.5-1.8-.5-1.9 0-2.7.2-1.7.5zM289.8 317.7c.7.3 1.6.2 1.9-.1.4-.3-.2-.6-1.3-.5-1.1 0-1.4.3-.6.6zM231 319c-1.8 1.2-.2 1.2 2.5 0 1.3-.6 1.5-.9.5-.9-.8 0-2.2.4-3 .9zM221.7 323.4c-5.7 3.5-5.9 4.3-.2 1.1 5.8-3.2 6.2-3.5 4.9-3.5-.5 0-2.6 1.1-4.7 2.4z"/><path d="M212.3 329c-1.8 1.1-3.3 2.2-3.3 2.5 0 .2 1.6-.5 3.5-1.6 1.9-1.2 3.5-2.3 3.5-2.5 0-.6-.3-.5-3.7 1.6zM250.8 329.7c1.2.2 3 .2 4 0 .9-.3-.1-.5-2.3-.4-2.2 0-3 .2-1.7.4zM275.3 329.7c1.5.2 3.9.2 5.5 0 1.5-.2.2-.4-2.8-.4s-4.3.2-2.7.4zM244.8 330.7c.6.2 1.8.2 2.5 0 .6-.3.1-.5-1.3-.5-1.4 0-1.9.2-1.2.5zM285.8 330.7c1.2.2 3 .2 4 0 .9-.3-.1-.5-2.3-.4-2.2 0-3 .2-1.7.4zM240.8 331.7c.7.3 1.6.2 1.9-.1.4-.3-.2-.6-1.3-.5-1.1 0-1.4.3-.6.6zM292.8 331.7c.6.2 1.8.2 2.5 0 .6-.3.1-.5-1.3-.5-1.4 0-1.9.2-1.2.5zM229.4 335.6c-1.8 1.4-1.8 1.4.6.3 3.1-1.4 3.6-1.9 2.4-1.9-.6 0-1.9.7-3 1.6zM223.8 338.6c-3.8 2-3.6 2.8.2.9 1.7-.9 3-1.8 3-2 0-.7-.1-.6-3.2 1.1zM215.5 343.5c-2.2 1.3-3.7 2.5-3.3 2.5.9 0 7.8-4.1 7.8-4.6 0-.6-.3-.5-4.5 2.1zM256.8 345.7c1.2.2 3 .2 4 0 .9-.3-.1-.5-2.3-.4-2.2 0-3 .2-1.7.4zM281.3 345.7c1.5.2 3.9.2 5.5 0 1.5-.2.2-.4-2.8-.4s-4.3.2-2.7.4zM250.8 346.7c.6.2 1.8.2 2.5 0 .6-.3.1-.5-1.3-.5-1.4 0-1.9.2-1.2.5zM292.3 346.7c.9.2 2.5.2 3.5 0 .9-.3.1-.5-1.8-.5-1.9 0-2.7.2-1.7.5zM246.8 347.7c.7.3 1.6.2 1.9-.1.4-.3-.2-.6-1.3-.5-1.1 0-1.4.3-.6.6zM298.8 347.7c.6.2 1.8.2 2.5 0 .6-.3.1-.5-1.3-.5-1.4 0-1.9.2-1.2.5zM239 350c-.8.5-1 1-.5 1 .6 0 1.7-.5 2.5-1s1.1-1 .5-1c-.5 0-1.7.5-2.5 1zM231.8 353.6c-3.8 2-3.6 2.8.2.9 1.7-.9 3-1.8 3-2 0-.7-.1-.6-3.2 1.1zM224.8 357.6c-3.8 2-3.6 2.8.2.9 1.7-.9 3-1.8 3-2 0-.7-.1-.6-3.2 1.1zM219 361c-.9.6-1 1-.3 1 .6 0 1.5-.5 1.8-1 .8-1.2.4-1.2-1.5 0zM269.3 364.7c4.3.2 11 .2 15 0 4-.1.5-.3-7.8-.3-8.2 0-11.5.2-7.2.3zM256.8 365.7c.6.2 1.8.2 2.5 0 .6-.3.1-.5-1.3-.5-1.4 0-1.9.2-1.2.5zM293.8 365.7c1.2.2 3.2.2 4.5 0 1.2-.2.2-.4-2.3-.4s-3.5.2-2.2.4zM252.8 366.7c.7.3 1.6.2 1.9-.1.4-.3-.2-.6-1.3-.5-1.1 0-1.4.3-.6.6zM302.3 366.7c.9.2 2.3.2 3 0 .6-.3-.1-.5-1.8-.5-1.6 0-2.2.2-1.2.5zM242.5 369.9c-7.1 3.4-20.3 11.1-19.1 11.1.5 0 4.5-2.1 8.9-4.6 4.3-2.6 10.4-5.7 13.5-7 3.2-1.3 5-2.4 4.2-2.4-.8 0-4.2 1.3-7.5 2.9zM276.3 381.7c2.6.2 6.7.2 9 0s.2-.3-4.8-.3c-4.9 0-6.8.1-4.2.3zM265.3 382.7c.9.2 2.3.2 3 0 .6-.3-.1-.5-1.8-.5-1.6 0-2.2.2-1.2.5zM294.8 382.7c1.2.2 3.2.2 4.5 0 1.2-.2.2-.4-2.3-.4s-3.5.2-2.2.4zM259.8 383.7c.7.3 1.6.2 1.9-.1.4-.3-.2-.6-1.3-.5-1.1 0-1.4.3-.6.6zM304.3 383.7c.9.2 2.5.2 3.5 0 .9-.3.1-.5-1.8-.5-1.9 0-2.7.2-1.7.5zM255.8 384.7c.7.3 1.6.2 1.9-.1.4-.3-.2-.6-1.3-.5-1.1 0-1.4.3-.6.6zM238.8 392c-6 3.4-10.8 6.3-10.8 6.6 0 .3.3.3.8.1.4-.3 5.6-3.2 11.7-6.6 6-3.4 10.5-6.1 10-6.1-.6 0-5.8 2.7-11.7 6zM140.5 290c.3.5.8 1 1.1 1 .2 0 .4-.5.4-1 0-.6-.5-1-1.1-1-.5 0-.7.4-.4 1zM183.6 294.4c.3.9 1.5 1.6 2.7 1.6 1.8 0 1.7-1.5-.1-1.5-.4 0-1.3-.4-1.9-.8-.9-.6-1.1-.3-.7.7zM157.1 295.8c-.1 1.4 2.6 2.8 3.6 1.8.4-.3.1-1.2-.7-1.9-1-.9-1.1-.9-.6 0 .4.7.3 1.3-.3 1.3-.5 0-1.2-.6-1.4-1.3-.4-.9-.6-.9-.6.1zM166 296.1c0 .5 1 .9 2.2.9 1.2 0 1.8-.3 1.4-.7-1-1.1-3.6-1.2-3.6-.2zM130.6 297.4c.3.9 1.5 1.6 2.7 1.6 1.8 0 1.7-1.5-.1-1.5-.4 0-1.3-.4-1.9-.8-.9-.6-1.1-.3-.7.7zM95.3 299c.4 1.8 3.7 2.7 3.7 1 0-.6-.5-.8-1.1-.4-.6.3-1.6 0-2.1-.7-.8-1.2-.9-1.1-.5.1zM113 299.1c0 .5.5.9 1 .9h1.5c1.4 0 .8-1.3-.7-1.6-1-.1-1.8.2-1.8.7zM147.8 318.7c3.4.2 9 .2 12.5 0 3.4-.2.6-.3-6.3-.3-6.9 0-9.7.1-6.2.3zM117.3 319.7c3.7.2 9.6.2 13 0 3.4-.2.4-.3-6.8-.3-7.1 0-9.9.1-6.2.3zM94.8 320.7c2.9.2 7.4.2 10 0 2.6-.2.2-.3-5.3-.3s-7.6.1-4.7.3zM118.3 332.7c3.1.2 8.3.2 11.5 0 3.1-.2.5-.3-5.8-.3s-8.9.1-5.7.3zM89.8 333.7c3.4.2 8.8.2 12 0 3.1-.2.3-.3-6.3-.3s-9.2.1-5.7.3zM66.3 334.7c3.2.2 8.1.2 11 0 2.9-.2.3-.3-5.8-.3-6 0-8.4.1-5.2.3zM131.3 351.7c3.2.2 8.1.2 11 0 2.9-.2.3-.3-5.8-.3-6 0-8.4.1-5.2.3zM105.3 352.7c3.1.2 8.3.2 11.5 0 3.1-.2.5-.3-5.8-.3s-8.9.1-5.7.3zM86.3 353.7c2.6.2 6.7.2 9 0s.2-.3-4.8-.3c-4.9 0-6.8.1-4.2.3zM92.7 368.7c1.8.2 5 .2 7 0 2.1-.2.7-.4-3.2-.4-3.8 0-5.5.2-3.8.4zM71.8 369.7c2.9.2 7.4.2 10 0 2.6-.2.2-.3-5.3-.3s-7.6.1-4.7.3zM51.8 370.7c2.9.2 7.4.2 10 0 2.6-.2.2-.3-5.3-.3s-7.6.1-4.7.3zM117.2 398.7c3.7.2 10 .2 14 0 4-.1 1-.3-6.7-.3s-11 .1-7.3.3zM88.8 399.7c3.4.2 8.8.2 12 0 3.1-.2.3-.3-6.3-.3s-9.2.1-5.7.3zM358.8 307.7c.7.3 1.6.2 1.9-.1.4-.3-.2-.6-1.3-.5-1.1 0-1.4.3-.6.6zM362 308.9c0 .6.5 1.3 1.2 1.7.6.4.8.3.4-.4-.3-.6.3-1.2 1.6-1.5 2-.4 1.9-.4-.4-.6-1.6 0-2.8.3-2.8.8zM370.3 309.7c.9.2 2.3.2 3 0 .6-.3-.1-.5-1.8-.5-1.6 0-2.2.2-1.2.5zM376.1 311.2c.8.7 2 2 2.8 2.8 1.2 1.3 1.2 1.2.2-.7-.8-1.6-.8-2.3.2-2.6.6-.3-.1-.6-1.7-.6-2.5-.1-2.7.1-1.5 1.1zM382.3 311.7c.9.2 2.3.2 3 0 .6-.3-.1-.5-1.8-.5-1.6 0-2.2.2-1.2.5zM387 312.4c0 .2 1.3.6 2.9.8 1.7.2 2.8.1 2.5-.4-.5-.8-5.4-1.2-5.4-.4zM395.3 313.7c.9.2 2.3.2 3 0 .6-.3-.1-.5-1.8-.5-1.6 0-2.2.2-1.2.5zM401.3 314.7c.9.2 2.3.2 3 0 .6-.3-.1-.5-1.8-.5-1.6 0-2.2.2-1.2.5zM413.3 316.7c.9.2 2.3.2 3 0 .6-.3-.1-.5-1.8-.5-1.6 0-2.2.2-1.2.5zM426.3 318.7c.9.2 2.3.2 3 0 .6-.3-.1-.5-1.8-.5-1.6 0-2.2.2-1.2.5zM432.3 319.7c.9.2 2.3.2 3 0 .6-.3-.1-.5-1.8-.5-1.6 0-2.2.2-1.2.5zM438 322c1.2 2.3 2.2 2.7 1.4.6-.3-.8.2-1.6 1.3-1.9 1.2-.3.8-.5-1-.6-2.5-.1-2.7.1-1.7 1.9zM444.3 321.7c.9.2 2.3.2 3 0 .6-.3-.1-.5-1.8-.5-1.6 0-2.2.2-1.2.5zM457.3 323.7c.9.2 2.3.2 3 0 .6-.3-.1-.5-1.8-.5-1.6 0-2.2.2-1.2.5zM475.3 326.7c.9.2 2.3.2 3 0 .6-.3-.1-.5-1.8-.5-1.6 0-2.2.2-1.2.5zM488.3 328.7c.9.2 2.3.2 3 0 .6-.3-.1-.5-1.8-.5-1.6 0-2.2.2-1.2.5zM508.2 331.9c2 .4 4.5 1.4 5.4 2.2 1.1.9 1.5.9 1 .2-.5-1 .5-1.2 4.1-.8 3.6.3 3 .1-2.2-1-3.8-.7-8.1-1.4-9.5-1.3-1.7 0-1.3.3 1.2.7zM524 334.4c0 .2 1.1.6 2.5.8 1.4.3 2.5.1 2.5-.3 0-.5-1.1-.9-2.5-.9s-2.5.2-2.5.4zM531.3 335.7c.9.2 2.3.2 3 0 .6-.3-.1-.5-1.8-.5-1.6 0-2.2.2-1.2.5zM556 339.7c.8.3 2 1 2.6 1.4.7.5 1.1.3 1.1-.6 0-1-1-1.5-2.6-1.4-1.6 0-2 .3-1.1.6zM562.3 340.7c.9.2 2.3.2 3 0 .6-.3-.1-.5-1.8-.5-1.6 0-2.2.2-1.2.5zM185 328.7c-4.6 13.6-8.7 25.3-9.1 25.9-.5.6-.6 1.4-.2 1.8.4.4 4.7-11.1 9.5-25.5 4.8-14.5 8.6-26.4 8.4-26.6-.2-.3-4.1 10.7-8.6 24.4zM300.5 441.6c-1.6.2-7.3.9-12.5 1.5-18 2-44.4 9.1-59.3 15.9-8 3.6-4.7 3.2 3.9-.5 26.2-11.3 62.1-17 102.7-16.3 10.3.2 18.7 0 18.7-.5 0-.7-47.4-.8-53.5-.1zM129.3 431.7c1.5.2 3.7.2 5 0 1.2-.2 0-.4-2.8-.4-2.7 0-3.8.2-2.2.4zM96.3 432.7c4.2.2 11.2.2 15.5 0 4.2-.1.7-.3-7.8-.3s-12 .2-7.7.3zM60.3 433.7c4.2.2 11.2.2 15.5 0 4.2-.1.7-.3-7.8-.3s-12 .2-7.7.3zM42.8 434.7c1.2.2 3 .2 4 0 .9-.3-.1-.5-2.3-.4-2.2 0-3 .2-1.7.4zM99.2 435.7c7 .2 18.7.2 26 0 7.3-.1 1.6-.3-12.7-.3-14.3 0-20.3.2-13.3.3zM62 438.1c-20.1.5-39.2 1-42.5 1.2-3.3.2 12 .2 34-.1 22-.2 45-.8 51-1.2 10.7-.7 10.8-.7 2.5-.7-4.7 0-24.9.4-45 .8z"/></svg>